<?xml version="1.0" encoding="iso-8859-1"?>
<!-- Generator: Adobe Illustrator 16.0.0, SVG Export Plug-In . SVG Version: 6.00 Build 0)  -->
<!DOCTYPE svg PUBLIC "-//W3C//DTD SVG 1.1//EN" "http://www.w3.org/Graphics/SVG/1.1/DTD/svg11.dtd">
<svg version="1.1" id="Capa_1" xmlns="http://www.w3.org/2000/svg" xmlns:xlink="http://www.w3.org/1999/xlink" x="0px" y="0px"
	 width="229.163px" height="229.162px" viewBox="0 0 229.163 229.162" style="enable-background:new 0 0 229.163 229.162;"
	 xml:space="preserve">
<g>
	<g>
		<path d="M145.631,21.769H83.534c-1.49,0-2.7,1.21-2.7,2.7v22.853H47.25H13.5c-7.441,0-13.5,6.059-13.5,13.5v133.072
			c0,7.436,6.059,13.5,13.5,13.5h33.75h134.667h33.745c7.456,0,13.5-6.064,13.5-13.5V60.821c0-7.441-6.044-13.5-13.5-13.5h-33.75
			h-33.581V24.469C148.332,22.974,147.124,21.769,145.631,21.769z M86.234,27.169h56.697v20.152H86.234V27.169z M5.4,193.894V60.821
			c0-4.467,3.636-8.1,8.1-8.1h20.25v149.273H13.5C9.042,201.994,5.4,198.355,5.4,193.894z M223.768,60.821v133.072
			c0,4.462-3.645,8.101-8.101,8.101h-19.923V52.721h19.918C220.124,52.721,223.768,56.354,223.768,60.821z M179.217,201.994H49.95
			V52.721h33.584h62.098h33.586V201.994L179.217,201.994z"/>
		<path d="M125.36,95.41c0-1.493-1.207-2.7-2.7-2.7h-16.155c-1.49,0-2.7,1.207-2.7,2.7v21.167H82.637c-1.49,0-2.7,1.208-2.7,2.697
			v16.152c0,1.482,1.21,2.7,2.7,2.7h21.168v21.184c0,1.481,1.21,2.7,2.7,2.7h16.155c1.493,0,2.7-1.219,2.7-2.7v-21.184h21.179
			c1.486,0,2.699-1.218,2.699-2.7v-16.152c0-1.489-1.213-2.697-2.699-2.697H125.36V95.41z"/>
	</g>
</g>
<g>
</g>
<g>
</g>
<g>
</g>
<g>
</g>
<g>
</g>
<g>
</g>
<g>
</g>
<g>
</g>
<g>
</g>
<g>
</g>
<g>
</g>
<g>
</g>
<g>
</g>
<g>
</g>
<g>
</g>
</svg>
