<?xml version="1.0" encoding="iso-8859-1"?>
<!-- Generator: Adobe Illustrator 18.0.0, SVG Export Plug-In . SVG Version: 6.00 Build 0)  -->
<!DOCTYPE svg PUBLIC "-//W3C//DTD SVG 1.1//EN" "http://www.w3.org/Graphics/SVG/1.1/DTD/svg11.dtd">
<svg version="1.1" id="Capa_1" xmlns="http://www.w3.org/2000/svg" xmlns:xlink="http://www.w3.org/1999/xlink" x="0px" y="0px"
	 viewBox="0 0 60 60" style="enable-background:new 0 0 60 60;" xml:space="preserve">
<g>
	<path d="M33,21h-6.005l0.021,4H23v5.995l4,0.021V35h6v-3.979h4V25h-4V21z M35,27v2.021h-4V33h-2v-3.973l-4-0.021V27h4.027l-0.021-4
		H31v4H35z"/>
	<path d="M46.986,1.165c0.048-0.29-0.033-0.586-0.223-0.811C46.573,0.129,46.294,0,46,0H14c-0.291,0-0.566,0.126-0.757,0.346
		c-0.19,0.22-0.275,0.511-0.232,0.799l0.878,6c0,0,0,0,0,0.001l6.139,41.926V59c0,0.552,0.448,1,1,1H38c0.552,0,1-0.448,1-1v-9.917
		l6.986-41.918L46.986,1.165z M17,2v2h2V2h2v2h2V2h2v2h2V2h2v2h2V2h2v2h2V2h2v2h2V2h2v2h2V2h1.819l-0.667,4h-28.41l-0.586-4H17z
		 M27,54h5v1h-5V54z M33,52h-7h-3.972v-2H37v2H33z M37.153,48h-15.26L16.036,8h27.784L37.153,48z M22.028,58v-4H25v2
		c0,0.552,0.448,1,1,1h7c0.552,0,1-0.448,1-1v-2h3v4H22.028z"/>
</g>
<g>
</g>
<g>
</g>
<g>
</g>
<g>
</g>
<g>
</g>
<g>
</g>
<g>
</g>
<g>
</g>
<g>
</g>
<g>
</g>
<g>
</g>
<g>
</g>
<g>
</g>
<g>
</g>
<g>
</g>
</svg>
