<?xml version="1.0" encoding="iso-8859-1"?>
<!-- Generator: Adobe Illustrator 19.0.0, SVG Export Plug-In . SVG Version: 6.00 Build 0)  -->
<svg version="1.1" id="Layer_1" xmlns="http://www.w3.org/2000/svg" xmlns:xlink="http://www.w3.org/1999/xlink" x="0px" y="0px"
	 viewBox="0 0 512 512" style="enable-background:new 0 0 512 512;" xml:space="preserve">
<g>
	<g>
		<path d="M509.013,98.41L413.591,2.987C411.677,1.075,409.084,0,406.379,0s-5.299,1.075-7.212,2.987L375.135,27.02
			c-3.983,3.983-3.983,10.441,0,14.424l29.543,29.543l-26.572,26.572l-13.993-13.993c-3.984-3.982-10.44-3.982-14.425,0
			L115.02,318.235c-3.983,3.983-3.983,10.441,0,14.425l24.948,24.948L25.606,471.97c-3.983,3.983-3.983,10.441,0,14.425
			c1.992,1.992,4.602,2.987,7.212,2.987s5.22-0.995,7.212-2.987l114.363-114.363l24.948,24.948c1.992,1.991,4.602,2.987,7.212,2.987
			s5.22-0.996,7.212-2.987l234.668-234.668c3.983-3.983,3.983-10.441,0-14.425l-13.993-13.993l26.572-26.572l29.544,29.544
			c1.913,1.912,4.507,2.987,7.212,2.987s5.298-1.075,7.212-2.987l24.032-24.032C512.996,108.85,512.996,102.393,509.013,98.41z
			 M186.553,375.344l-49.898-49.898l19.504-19.504l10.105,10.105c1.992,1.992,4.602,2.987,7.212,2.987s5.22-0.995,7.212-2.987
			c3.983-3.983,3.983-10.441,0-14.425l-10.105-10.105l16.677-16.677l10.105,10.105c1.992,1.992,4.602,2.987,7.212,2.987
			c2.61,0,5.22-0.995,7.212-2.987c3.983-3.983,3.983-10.441,0-14.425l-10.105-10.105l16.677-16.677l10.105,10.105
			c1.992,1.992,4.602,2.987,7.212,2.987s5.22-0.995,7.212-2.987c3.983-3.983,3.983-10.441,0-14.425l-10.105-10.105l16.677-16.677
			l10.105,10.105c1.992,1.992,4.602,2.987,7.212,2.987c2.61,0,5.22-0.995,7.212-2.987c3.983-3.983,3.983-10.441,0-14.425
			l-10.105-10.105l16.676-16.677l10.105,10.105c1.992,1.992,4.602,2.987,7.212,2.987c2.61,0,5.22-0.995,7.212-2.987
			c3.983-3.983,3.983-10.441,0-14.425l-10.105-10.105l61.914-61.914l49.9,49.903L186.553,375.344z M400.018,119.471l-7.488-7.488
			l26.572-26.572l7.488,7.488L400.018,119.471z M477.769,115.231L396.77,34.232l9.609-9.609l80.999,80.999L477.769,115.231z"/>
	</g>
</g>
<g>
	<g>
		<path d="M19.531,492.468c-3.984-3.982-10.44-3.982-14.424,0.001l-2.12,2.12c-3.983,3.983-3.983,10.441,0,14.425
			C4.979,511.005,7.589,512,10.199,512s5.22-0.995,7.212-2.987l2.12-2.12C23.514,502.91,23.514,496.451,19.531,492.468z"/>
	</g>
</g>
<g>
</g>
<g>
</g>
<g>
</g>
<g>
</g>
<g>
</g>
<g>
</g>
<g>
</g>
<g>
</g>
<g>
</g>
<g>
</g>
<g>
</g>
<g>
</g>
<g>
</g>
<g>
</g>
<g>
</g>
</svg>
