<?xml version="1.0" encoding="iso-8859-1"?>
<!-- Generator: Adobe Illustrator 18.0.0, SVG Export Plug-In . SVG Version: 6.00 Build 0)  -->
<!DOCTYPE svg PUBLIC "-//W3C//DTD SVG 1.1//EN" "http://www.w3.org/Graphics/SVG/1.1/DTD/svg11.dtd">
<svg version="1.1" id="Capa_1" xmlns="http://www.w3.org/2000/svg" xmlns:xlink="http://www.w3.org/1999/xlink" x="0px" y="0px"
	 viewBox="0 0 55.583 55.583" style="enable-background:new 0 0 55.583 55.583;" xml:space="preserve">
<g>
	<path d="M55.289,53.876l-8.485-8.485l2.827-2.827c0.567-0.567,0.88-1.321,0.88-2.123c0-0.802-0.313-1.556-0.88-2.122L34.075,22.763
		l-2.828,2.828l0,0l-5.657,5.657l0,0l-2.828,2.828l15.555,15.556c0.567,0.567,1.321,0.879,2.123,0.879
		c0.801,0,1.555-0.313,2.122-0.879l2.828-2.828l8.485,8.485c0.195,0.195,0.451,0.293,0.707,0.293s0.512-0.098,0.707-0.293
		C55.679,54.899,55.679,54.267,55.289,53.876z M33.722,38.673c-0.586,0.586-1.536,0.586-2.121,0c-0.586-0.586-0.586-1.536,0-2.121
		c0.586-0.586,1.536-0.586,2.121,0C34.308,37.138,34.308,38.087,33.722,38.673z M35.136,30.188c0.586-0.586,1.536-0.586,2.121,0
		c0.586,0.586,0.586,1.536,0,2.121c-0.586,0.586-1.536,0.586-2.121,0C34.55,31.723,34.55,30.774,35.136,30.188z M38.672,43.623
		c-0.586,0.586-1.536,0.586-2.121,0c-0.586-0.586-0.586-1.536,0-2.121c0.586-0.586,1.536-0.586,2.121,0
		C39.258,42.087,39.258,43.037,38.672,43.623z M40.086,37.966c-0.586,0.586-1.536,0.586-2.121,0c-0.586-0.586-0.586-1.536,0-2.121
		c0.586-0.586,1.536-0.586,2.121,0C40.672,36.43,40.672,37.38,40.086,37.966z M42.914,41.502c-0.586-0.586-0.586-1.536,0-2.121
		c0.586-0.586,1.536-0.586,2.121,0c0.586,0.586,0.586,1.536,0,2.121C44.45,42.087,43.5,42.087,42.914,41.502z"/>
	<path d="M16.398,22.056l1.414-1.414l7.778,7.778l2.829-2.829l-7.778-7.778l1.414-1.414l7.778,7.778l2.828-2.828l-7.07-7.07
		c-0.247-0.247-0.538-0.43-0.847-0.569l2.261-2.261c0.391-0.391,0.391-1.023,0-1.414s-1.023-0.391-1.414,0l-4.244,4.244
		l-0.706,0.706l-2.956-2.956c0.425-0.263,0.826-0.571,1.188-0.933c1.228-1.228,1.904-2.86,1.904-4.596S20.1,3.131,18.873,1.904
		C17.645,0.676,16.013,0,14.276,0S10.908,0.676,9.68,1.904C8.453,3.131,7.776,4.763,7.776,6.5c0,0.493,0.06,0.975,0.166,1.445
		C7.474,7.838,6.991,7.778,6.498,7.778c-1.736,0-3.368,0.676-4.596,1.904c-2.535,2.534-2.535,6.658,0,9.192
		c1.228,1.228,2.859,1.904,4.596,1.904s3.369-0.676,4.596-1.904c0.366-0.366,0.672-0.767,0.932-1.189l2.957,2.957l-0.707,0.707
		c-0.001,0.001-0.001,0.002-0.002,0.003l-4.241,4.241c-0.391,0.391-0.391,1.023,0,1.414c0.195,0.195,0.451,0.293,0.707,0.293
		s0.512-0.098,0.707-0.293l2.252-2.252c0.143,0.302,0.328,0.589,0.577,0.839l7.07,7.07l2.828-2.828L16.398,22.056z M9.776,6.5
		c0-1.202,0.468-2.332,1.318-3.182S13.074,2,14.276,2s2.332,0.468,3.182,1.318s1.318,1.98,1.318,3.182
		c0,1.202-0.468,2.332-1.318,3.182c-0.587,0.587-1.313,0.977-2.098,1.171c-0.122,0.03-0.243,0.057-0.366,0.077
		c-0.176,0.028-0.354,0.045-0.535,0.052c-0.13,0.005-0.261,0.004-0.391-0.002c-0.108-0.005-0.215-0.019-0.321-0.031
		c-0.233-0.028-0.463-0.073-0.69-0.136c-0.092-0.026-0.183-0.051-0.273-0.083c-0.127-0.044-0.253-0.092-0.375-0.147
		c-0.195-0.089-0.386-0.186-0.567-0.303c-0.064-0.041-0.123-0.09-0.185-0.134c-0.196-0.141-0.389-0.289-0.563-0.463
		C10.244,8.832,9.776,7.702,9.776,6.5z M6.498,18.778c-1.202,0-2.332-0.468-3.182-1.318c-1.754-1.755-1.754-4.609,0-6.364
		c0.85-0.85,1.98-1.318,3.182-1.318c1.202,0,2.332,0.468,3.182,1.318c0.193,0.193,0.355,0.403,0.505,0.619
		c0.029,0.041,0.062,0.079,0.089,0.121c0.141,0.217,0.258,0.445,0.357,0.679c0.022,0.051,0.041,0.102,0.061,0.154
		c0.188,0.491,0.286,1.007,0.296,1.527c0.001,0.054,0.001,0.108,0,0.162c-0.004,0.253-0.025,0.505-0.072,0.754
		c-0.008,0.043-0.023,0.085-0.033,0.128c-0.177,0.813-0.572,1.589-1.203,2.22C8.83,18.31,7.7,18.778,6.498,18.778z M12.843,15.673
		c0.004-0.018,0.005-0.035,0.009-0.053c0.034-0.164,0.06-0.33,0.081-0.496c0.009-0.067,0.022-0.134,0.029-0.201
		c0.014-0.141,0.017-0.282,0.022-0.423c0.009-0.233,0.004-0.465-0.012-0.697c-0.004-0.055-0.004-0.111-0.01-0.166
		c-0.015-0.15-0.039-0.299-0.065-0.448c-0.012-0.069-0.021-0.138-0.035-0.207c-0.01-0.049-0.014-0.099-0.025-0.147
		c0.001,0,0.001,0,0.002,0C13.307,12.94,13.787,13,14.276,13c0.476,0,0.942-0.055,1.396-0.154l3.554,3.554l-2.829,2.828
		L12.843,15.673z"/>
</g>
<g>
</g>
<g>
</g>
<g>
</g>
<g>
</g>
<g>
</g>
<g>
</g>
<g>
</g>
<g>
</g>
<g>
</g>
<g>
</g>
<g>
</g>
<g>
</g>
<g>
</g>
<g>
</g>
<g>
</g>
</svg>
