<?xml version="1.0" encoding="iso-8859-1"?>
<!-- Generator: Adobe Illustrator 18.0.0, SVG Export Plug-In . SVG Version: 6.00 Build 0)  -->
<!DOCTYPE svg PUBLIC "-//W3C//DTD SVG 1.1//EN" "http://www.w3.org/Graphics/SVG/1.1/DTD/svg11.dtd">
<svg version="1.1" id="Capa_1" xmlns="http://www.w3.org/2000/svg" xmlns:xlink="http://www.w3.org/1999/xlink" x="0px" y="0px"
	 viewBox="0 0 462.211 462.211" style="enable-background:new 0 0 462.211 462.211;" xml:space="preserve">
<path d="M445.328,209.614c-19.56-41.132-53.723-72.352-96.196-87.908c-0.558-0.204-1.116-0.406-1.674-0.604
	c-13.132-4.66-27.729-1.735-38.088,7.634c-10.426,9.428-14.658,23.172-11.323,36.767c3.263,13.302,5.128,26.815,5.62,40.352
	L241.106,162.5V45.454c0-5.523-4.478-10-10-10s-10,4.477-10,10v117.045l-62.561,43.357c0.492-13.538,2.358-27.051,5.621-40.353
	c3.335-13.595-0.898-27.339-11.324-36.767c-10.36-9.369-24.954-12.294-38.092-7.632c-0.555,0.197-1.109,0.397-1.671,0.602
	c-42.473,15.556-76.635,46.775-96.194,87.908c-19.558,41.127-22.219,87.333-7.492,130.104
	c10.224,29.693,28.294,55.984,52.257,76.031c8.565,7.166,19.298,11.008,30.296,11.008c2.539,0,5.093-0.205,7.637-0.621
	c13.496-2.208,25.327-10.148,32.461-21.785c10.854-17.704,24.291-33.528,39.94-47.032c14.662-12.652,18.611-33.455,9.604-50.586
	c-4.652-8.848-8.686-18.151-11.989-27.65c-5.586-16.058-9.088-32.604-10.49-49.283l71.998-49.897l71.998,49.898
	c-1.402,16.679-4.903,33.225-10.488,49.282c-3.307,9.504-7.341,18.808-11.989,27.65c-9.009,17.133-5.06,37.935,9.603,50.586
	c15.648,13.504,29.086,29.328,39.939,47.032c7.135,11.638,18.967,19.579,32.463,21.786c2.544,0.416,5.097,0.621,7.636,0.621
	c10.997,0,21.729-3.843,30.295-11.009c23.964-20.046,42.034-46.337,52.257-76.03C467.546,296.947,464.885,250.742,445.328,209.614z
	 M158.917,342.178c-17.213,14.854-31.992,32.255-43.925,51.72v0c-4.093,6.676-10.886,11.232-18.639,12.5
	c-7.819,1.282-15.792-0.904-21.872-5.99c-21.171-17.711-37.14-40.949-46.179-67.201c-13.012-37.792-10.652-78.634,6.644-115.005
	c17.296-36.373,47.487-63.973,85.005-77.714c0.498-0.182,0.996-0.361,1.49-0.537c1.996-0.708,4.036-1.055,6.051-1.055
	c4.33,0,8.541,1.604,11.936,4.675c4.882,4.414,6.868,10.833,5.314,17.168c-10.143,41.341-8.079,84.536,5.965,124.914
	c3.63,10.437,8.063,20.661,13.178,30.388C168.538,324.891,166.495,335.639,158.917,342.178z M433.909,333.208
	c-9.038,26.252-25.007,49.49-46.179,67.201c-6.079,5.086-14.052,7.27-21.871,5.99c-7.753-1.268-14.547-5.824-18.64-12.501
	c-11.933-19.465-26.711-36.866-43.924-51.721c-7.578-6.539-9.621-17.286-4.967-26.137c5.11-9.721,9.544-19.944,13.177-30.387
	c14.044-40.376,16.106-83.571,5.965-124.914c-1.554-6.336,0.433-12.754,5.313-17.168c4.975-4.498,11.699-5.851,17.987-3.619
	c0.496,0.176,0.99,0.354,1.482,0.535c37.524,13.743,67.716,41.344,85.013,77.716C444.561,254.574,446.921,295.417,433.909,333.208z"
	/>
<g>
</g>
<g>
</g>
<g>
</g>
<g>
</g>
<g>
</g>
<g>
</g>
<g>
</g>
<g>
</g>
<g>
</g>
<g>
</g>
<g>
</g>
<g>
</g>
<g>
</g>
<g>
</g>
<g>
</g>
</svg>
