<?xml version="1.0" encoding="iso-8859-1"?>
<!-- Generator: Adobe Illustrator 19.0.0, SVG Export Plug-In . SVG Version: 6.00 Build 0)  -->
<svg version="1.1" id="Layer_1" xmlns="http://www.w3.org/2000/svg" xmlns:xlink="http://www.w3.org/1999/xlink" x="0px" y="0px"
	 viewBox="0 0 504.938 504.938" style="enable-background:new 0 0 504.938 504.938;" xml:space="preserve">
<g transform="translate(1 1)">
	<g>
		<path d="M501.29,51.966l-12.359-12.359L464.214,14.89L450.972,1.648c-3.531-3.531-8.828-3.531-12.359,0
			c-3.531,3.531-3.531,8.828,0,12.359l7.062,7.062l-56.497,56.497l-19.421-19.421c-3.531-3.531-8.828-3.531-12.359,0l-24.717,24.717
			c-3.531,3.531-3.531,8.828,0,12.359l0,0l-50.317,50.317c0,0,0,0-0.001,0.001l-118.29,118.29
			c-13.76,14.358-18.182,34.39-13.291,52.132L127,339.745c-0.934,0.934-1.613,1.872-2.053,2.936l-24.43,24.43
			c-7.685,7.685-9.282,18.685-4.803,27.754L1.648,488.931c-3.531,3.531-3.531,8.828,0,12.359c1.766,1.766,3.531,2.648,6.179,2.648
			c2.648,0,4.414-0.883,6.179-2.648l93.421-93.421c3.938,2.707,8.664,4.262,13.393,4.262c7.062,0,12.359-2.648,16.772-7.945
			l26.483-26.483c0.934-0.934,1.613-1.871,2.053-2.936l21.687-21.687c4.294,1.108,8.767,1.671,13.336,1.671
			c14.124,0,27.365-5.297,37.959-15.89l118.29-118.29l50.317-50.317c1.766,1.766,3.531,2.648,6.179,2.648
			c1.766,0,4.414-0.883,6.179-2.648l24.717-24.717c3.531-3.531,3.531-8.828,0-12.359l-18.538-18.538l56.497-56.497l6.179,6.179
			c1.766,1.766,3.531,2.648,6.179,2.648c1.766,0,4.414-0.883,6.179-2.648C504.821,60.793,504.821,55.497,501.29,51.966z
			 M320.324,170.255L363.579,127l12.359,12.359l-43.255,43.255L320.324,170.255z M345.041,108.462l6.621,6.621l-43.697,43.697
			l-7.062-7.062L345.041,108.462z M125.234,391.828c-1.766,2.648-6.179,2.648-8.828,0l-3.531-3.531
			c-2.648-1.766-2.648-6.179,0-8.828l20.303-20.303l12.359,12.359L125.234,391.828z M157.897,357.4l-12.359-12.359l12.894-12.894
			c0.367,0.52,0.747,1.033,1.136,1.542c0.993,1.976,2.493,3.83,4.508,5.173c2.011,2.194,4.181,4.147,6.472,5.887L157.897,357.4z
			 M226.752,327.386c-14.124,13.241-37.076,13.241-50.317,0c-0.002-0.002-0.003-0.003-0.005-0.005
			c-3.529-3.53-6.175-7.942-7.94-12.353c-0.178-0.533-0.443-1.021-0.75-1.483c-4.244-12.367-1.351-26.43,8.695-36.476l18.465-18.611
			l24.79,24.79c1.766,1.766,3.531,2.648,6.179,2.648s5.297-0.883,6.179-2.648c3.531-3.531,3.531-8.828,0-12.359l-24.838-24.838
			l18.995-19.145l25.264,24.562c1.766,1.766,3.531,2.648,6.179,2.648c1.766,0,4.414-0.883,6.179-2.648
			c3.531-3.531,3.531-8.828,0-12.359l-25.313-24.61l18.815-18.964l25.036,25.036c1.766,1.766,3.531,2.648,6.179,2.648
			c2.648,0,4.414-0.883,6.179-2.648c3.531-3.531,3.531-8.828,0-12.359L269.64,183.13l18.905-19.054l50.317,51.2L226.752,327.386z
			 M351.221,202.035l-6.179-6.179l43.697-43.697l6.621,6.621L351.221,202.035z M413.897,151.717l-18.538-18.538l-24.717-24.717
			l-19.421-19.421l12.359-12.359L383,96.103c0,0,0,0,0,0l24.717,24.717c0,0,0,0,0,0l18.538,18.538L413.897,151.717z M413.014,101.4
			l-12.359-12.359l56.497-56.497l12.359,12.359L413.014,101.4z"/>
	</g>
</g>
<g>
</g>
<g>
</g>
<g>
</g>
<g>
</g>
<g>
</g>
<g>
</g>
<g>
</g>
<g>
</g>
<g>
</g>
<g>
</g>
<g>
</g>
<g>
</g>
<g>
</g>
<g>
</g>
<g>
</g>
</svg>
